<svg width="343" height="470" viewBox="0 0 343 470" fill="none" xmlns="http://www.w3.org/2000/svg">
<path d="M294.986 469.741L270.034 435.649L230.666 401.558L217.912 376.471L195.178 343.023L180.208 312.147L156.919 254.256L129.749 219.521L120.323 184.143L108.125 151.981L79.2909 126.251L62.102 90.873L37.7046 67.7164L3.32677 22.0464L0 0.81958L19.9613 2.74922L69.3106 10.4682L98.1436 50.9921L123.65 79.2946L141.394 96.0189L171.89 140.402L204.05 141.046L230.666 169.348L249.518 204.083L273.361 223.38L260.608 256.829L278.906 270.98L289.995 272.266L294.986 301.212L305.521 323.725L328.255 327.585L342.671 353.958L333.245 405.417L329.364 469.098L294.986 469.741Z" fill="url(#paint0_linear_13_563)"/>
<defs>
<linearGradient id="paint0_linear_13_563" x1="171.336" y1="0.81958" x2="171.336" y2="469.741" gradientUnits="userSpaceOnUse">
<stop stop-color="#93C650"/>
<stop offset="1" stop-color="#277633"/>
</linearGradient>
</defs>
</svg>
