<svg width="316" height="349" viewBox="0 0 316 349" fill="none" xmlns="http://www.w3.org/2000/svg">
<path d="M27.3443 122.923L48.9695 146.723L69.4852 138.361L89.4466 140.934L107.745 120.35L122.716 116.491L152.658 128.069L178.165 119.064L192.582 61.8154L204.226 47.6641L213.652 0.707764H249.694L277.418 7.78323L260.783 45.0912L285.181 83.6855L280.19 102.983L315.678 140.934L278.527 146.08L268.546 174.382L269.655 211.69L239.158 239.992L236.941 281.16L223.079 344.197L219.197 329.403L182.601 348.057L170.957 322.97L148.777 320.397L133.251 306.889L95.5465 322.327L85.0111 301.743L63.9404 304.316L38.4341 299.814L35.1073 244.495L19.5814 232.917L4.61049 197.539L0.174316 161.517L3.5011 122.923L21.7995 95.2637L27.3443 122.923Z" fill="url(#paint0_linear_13_562)"/>
<defs>
<linearGradient id="paint0_linear_13_562" x1="157.926" y1="0.707764" x2="157.926" y2="348.057" gradientUnits="userSpaceOnUse">
<stop stop-color="#93C650"/>
<stop offset="1" stop-color="#277633"/>
</linearGradient>
</defs>
</svg>
