<svg width="328" height="374" viewBox="0 0 328 374" fill="none" xmlns="http://www.w3.org/2000/svg">
<path d="M328 232V373.5L288.077 328.09L257.025 319.728L248.708 331.307L208.785 332.593L224.311 299.145L244.827 287.566L239.282 242.54L226.529 208.448L167.199 173.07L141.693 169.854L95.6701 131.26L85.6898 151.843L73.4907 155.059L67.3915 140.265L67.9458 122.254L44.6577 101.671L79.0356 86.8759L101.215 87.5194L98.9969 76.5843H52.975L40.7759 52.1413L13.0516 44.4223L0.298828 23.8386L42.4396 14.19L58.5198 0.68219L108.978 17.4062L113.968 32.8441L121.176 99.7407L152.782 124.184L180.507 80.4436L217.103 56.0006H244.827L271.443 70.1519L294.176 84.9463L328 92.6652V232Z" fill="url(#paint0_linear_13_559)"/>
<defs>
<linearGradient id="paint0_linear_13_559" x1="164.149" y1="0.68219" x2="164.149" y2="373.5" gradientUnits="userSpaceOnUse">
<stop stop-color="#93C650"/>
<stop offset="1" stop-color="#277633"/>
</linearGradient>
</defs>
</svg>
