<svg width="206" height="303" viewBox="0 0 206 303" fill="none" xmlns="http://www.w3.org/2000/svg">
<path d="M181.002 50.8764L157.159 58.5951L127.217 50.8764L74.5405 52.806L47.3713 58.5951L42.9352 90.114L70.6594 126.778L87.8483 108.125L146.624 93.9733L143.851 112.627L129.989 106.838L116.127 131.281L87.8483 147.362L116.127 200.108L110.028 214.259L136.643 261.859L134.98 288.875L117.791 301.096L106.147 286.302L122.781 252.853L91.1751 268.934L83.9672 257.356L88.4027 241.275L66.7783 216.832L70.6594 176.951L49.0344 189.173L50.1437 237.415L49.0344 296.593L28.5187 302.383L15.7653 290.805L26.3006 252.853L22.9738 212.972L9.66606 212.329L0.794434 184.027L14.6566 157.011L19.6471 124.206L36.2816 61.8113L42.3808 45.0873L68.9957 14.2117L93.9475 26.4332L133.316 32.2225L169.358 30.2927L200.409 0.703644L205.954 9.70914L181.002 50.8764Z" fill="url(#paint0_linear_13_560)"/>
<defs>
<linearGradient id="paint0_linear_13_560" x1="103.374" y1="0.703644" x2="103.374" y2="302.383" gradientUnits="userSpaceOnUse">
<stop stop-color="#93C650"/>
<stop offset="1" stop-color="#277633"/>
</linearGradient>
</defs>
</svg>
